<svg id="visual" viewBox="0 0 1200 600" width="1200" height="600" xmlns="http://www.w3.org/2000/svg" xmlns:xlink="http://www.w3.org/1999/xlink" version="1.1"><rect x="0" y="0" width="1200" height="600" fill="#4949d4"></rect><path d="M875 0L819.8 16.7C764.7 33.3 654.3 66.7 640.5 100C626.7 133.3 709.3 166.7 768.7 200C828 233.3 864 266.7 809.3 300C754.7 333.3 609.3 366.7 606.3 400C603.3 433.3 742.7 466.7 750.5 500C758.3 533.3 634.7 566.7 572.8 583.3L511 600L0 600L0 583.3C0 566.7 0 533.3 0 500C0 466.7 0 433.3 0 400C0 366.7 0 333.3 0 300C0 266.7 0 233.3 0 200C0 166.7 0 133.3 0 100C0 66.7 0 33.3 0 16.7L0 0Z" fill="#3838af" stroke-linecap="round" stroke-linejoin="miter"></path></svg>